<svg width="100" height="100" fill="none" xmlns="http://www.w3.org/2000/svg"><path d="M46.609.013a72.43 72.43 0 0 0-4.183.474C20.683 3.817 3.644 20.95.447 42.7c-.34 2.304-.418 3.346-.442 6.037-.008 1.452-.008 2.486.008 2.289l.118-1.381c.3-3.59 1.026-7.103 2.202-10.615 1.87-5.619 4.625-10.535 8.492-15.192 1.098-1.317 4.183-4.411 5.557-5.563 5.2-4.372 11.285-7.576 17.678-9.313 11.262-3.054 23.259-1.799 33.534 3.52A46.85 46.85 0 0 1 83.15 25.527c8.342 10.867 11.412 24.923 8.39 38.402-1.603 7.174-4.973 13.937-9.81 19.69-1.153 1.373-4.247 4.46-5.565 5.556-4.656 3.867-9.573 6.621-15.192 8.492a44.991 44.991 0 0 1-10.615 2.201l-1.381.119c-.198.016.836.016 2.288.008 2.692-.024 3.733-.103 6.038-.442 12.186-1.792 23.235-7.987 31.166-17.48a49.853 49.853 0 0 0 11.05-24.497c.426-2.81.481-3.638.481-7.576 0-3.938-.055-4.767-.481-7.576C96.188 20.682 79.054 3.644 57.303.447 54.777.077 54.036.03 50.437.005c-1.91-.008-3.63-.008-3.828.008Z" fill="#fff"/><path d="M42.9 7.55c-14.964.994-28.342 9.857-35.121 23.28-3.765 7.458-5.248 15.737-4.293 24.023C5.064 68.679 13.359 80.896 25.655 87.5c12.178 6.534 26.92 6.716 39.264.481A42.683 42.683 0 0 0 85.47 65.246c1.847-4.821 2.834-10.109 2.802-15.073l-.008-1.476-.11 1.263c-.71 8.342-3.757 15.791-9.092 22.215-.995 1.2-3.118 3.346-4.396 4.46-6.346 5.492-14.064 8.743-22.493 9.477-1.847.158-5.864.118-7.537-.079-4.838-.568-8.895-1.752-13.14-3.835-11.76-5.753-19.937-17.133-21.657-30.107-.269-2.044-.347-3.607-.3-6.03.055-2.951.3-5.034.892-7.78 1.042-4.767 3.307-9.92 6.148-13.961.765-1.081 1.034-1.436.923-1.192-.158.324-.505 1.444-.694 2.21-.774 3.165-1.003 7.292-.545 9.746.205 1.066.892 3.796 1.31 5.193 1.997 6.637 5.398 12.098 10.094 16.225 1.232 1.081 1.673 1.429 5.746 4.499 3.749 2.817 5.193 3.945 6.369 4.971 4.956 4.31 7.3 8.01 8.318 13.109l.221 1.104.206-.67c.813-2.628 1.255-6.756 1.08-10.039a50.856 50.856 0 0 0-.197-2.525c-.852-6.937-3.788-13.448-8.681-19.2-.442-.521-1.689-1.871-2.762-3-5.09-5.334-8.46-9.122-10.22-11.482-.38-.513-.711-.978-.735-1.042-.087-.197-.529.427-.71 1.003-.576 1.823.237 5.216 1.989 8.294.442.781.963 1.547 2.36 3.48.394.545.489.734.473.923-.023.237-.04.245-.434.269-1.618.094-5.082-2.936-7.482-6.535-1.207-1.823-2.446-4.214-3.03-5.871-.6-1.697-.797-3.71-.648-6.48.174-3.07.198-4.221.095-4.718-.11-.513-.387-.892-.718-.979l-.229-.063.892-.987c5.24-5.8 11.901-9.864 19.344-11.798 2.312-.6 4.364-.947 6.945-1.176l1.184-.102h-1.579c-.868 0-2.02.031-2.565.063Z" fill="#fff"/><path d="M46.703 20.012c-2.289.6-3.954 2.785-3.962 5.192 0 .23.056.687.127 1.018a5.347 5.347 0 0 0 5.24 4.286c2.415 0 4.554-1.665 5.17-4.025.18-.687.189-1.934.007-2.604-.497-1.918-2.052-3.465-3.914-3.9-.718-.173-1.95-.157-2.668.033ZM77.31 21.804c-.498.458-.56 1.247-.348 4.49.26 3.978.024 6.116-.931 8.357-1.231 2.889-2.794 5.43-4.688 7.616-2.242 2.58-4.799 4.293-5.825 3.898-.07-.031-.126-.142-.126-.268 0-.221.197-.52 1.42-2.162 1.556-2.1 2.684-4.404 3.3-6.756.252-.97.276-1.167.284-2.21.008-1.262-.119-1.775-.56-2.35l-.214-.285-.157.229c-1.95 2.722-5.107 6.321-10.742 12.232-2.691 2.817-3.693 4-5.122 5.982-1.35 1.886-2.715 4.261-3.63 6.305-.9 2.005-.86 1.634-.3 3.315 1.128 3.377 1.752 7 1.752 10.18 0 .686.023 1.247.063 1.239.032 0 .347-.403.702-.884 1.192-1.61 2.834-3.291 5.075-5.177 1.263-1.073 2.897-2.336 6.748-5.232 3.867-2.912 4.499-3.425 6.03-4.917 4.033-3.938 6.827-8.57 8.72-14.48.53-1.626 1.413-5.13 1.595-6.314.166-1.026.19-3.938.04-5.327-.38-3.583-1.256-6.605-2.155-7.418-.363-.331-.616-.347-.932-.063Z" fill="#fff"/><path d="M67.129 26.783c-.774 1.207-2.928 2.66-5.438 3.685-1.894.765-3.725 1.27-6.52 1.784-3.038.552-5.082 1.128-6.44 1.815l-.623.307-.734-.347c-1.452-.702-3.386-1.247-6.172-1.744-3.567-.64-5.934-1.365-8.31-2.557-1.705-.852-3.189-1.996-3.86-2.967l-.276-.395.04.553c.166 2.099 1.728 4.964 4.025 7.347 1.531 1.594 2.896 2.699 5.382 4.348 1.768 1.176 2.392 1.673 3.433 2.754 2.597 2.691 4.578 6.503 5.722 11.001.3 1.184.671 3.11.671 3.489 0 .457.08.173.276-1.026.869-5.146 3.031-9.944 5.888-13.085 1.152-1.27 1.942-1.91 4.136-3.362 3.827-2.54 6.408-5.153 7.923-8.033.687-1.318 1.263-3.165 1.176-3.804-.023-.174-.055-.15-.3.237Z" fill="#fff"/></svg>